# xmcd
#
# Track frame offsets:
#  150
#  19404
#  46337
#  67931
#  97926
#  117062
#  151288
#  183022
#  205952
#  230719
#
# Disc length: 3316 seconds
#
# Revision: 0
# Processed by: cddbd v1.5.1PL2 Copyright (c) Steve Scherf et al.
# Submitted via: Collectorz.com_Music_Collector 6.11
#
DISCID=790cf20a
DTITLE=Lyle Lovett and His Small Band - West End Cultural Center, Winnipeg, Manitoba, Canada 23 Oct 1997 [CD2)
DYEAR=1997
DGENRE=Alt Country
TTITLE0=La County
TTITLE1=If I Had A Boat
TTITLE2=Walk Through The Bottomland
TTITLE3=She's No Lady
TTITLE4=Family Reserve
TTITLE5=Church
TTITLE6=Closing Time
TTITLE7=You Can't Resist It
TTITLE8=Road To Ensenada
TTITLE9=Simple Song
EXTD=
EXTT0=
EXTT1=
EXTT2=
EXTT3=
EXTT4=
EXTT5=
EXTT6=
EXTT7=
EXTT8=
EXTT9=
PLAYORDER=
